# xmcd CD Database Entry
#
# Track frame offsets:
# 150
# 20884
# 39543
# 57850
# 76479
# 89338
# 109784
# 127082
# 146543
# 165048
#
# Disc length: 2895 seconds
#
# Revision: 2
# Processed by: cddbd v1.4PL0 Copyright (c) Steve Scherf et al.
# Submitted via: tcd 2.0b
#
DISCID=7f0b4d0a
DTITLE=Praise God! Ministries - Orange Korean Church - Nothing But t
DTITLE=he Blood
DYEAR=1900
DGENRE=
TTITLE0=Woman (John 4:13-14)
TTITLE1=Beautiful to Me
TTITLE2=Set Free
TTITLE3=Step It Up
TTITLE4=The Things We Do And Say
TTITLE5=Faithfully
TTITLE6=How Will They Know
TTITLE7=Radiance
TTITLE8=It's You God
TTITLE9=Love the Lord Your God (Deut. 6:4-5)
EXTD=
EXTT0=
EXTT1=
EXTT2=
EXTT3=
EXTT4=
EXTT5=
EXTT6=
EXTT7=
EXTT8=
EXTT9=
PLAYORDER=
